<svg width="74" height="20" viewBox="0 0 74 20" fill="none" xmlns="http://www.w3.org/2000/svg">
<path d="M64.8381 10.7142L64.8381 5.71423H63.4286V10.7142C63.4286 12.6867 65.0063 14.2857 66.9524 14.2857C68.8985 14.2857 70.4762 12.6867 70.4762 10.7142L70.4762 5.71423H69.0667L69.0667 10.7142C69.0667 11.8977 68.1201 12.8571 66.9524 12.8571C65.7847 12.8571 64.8381 11.8977 64.8381 10.7142Z" fill="#4F507F"/>
<path d="M64.8381 10.7142L64.8381 5.71423H63.4286V10.7142C63.4286 12.6867 65.0063 14.2857 66.9524 14.2857C68.8985 14.2857 70.4762 12.6867 70.4762 10.7142L70.4762 5.71423H69.0667L69.0667 10.7142C69.0667 11.8977 68.1201 12.8571 66.9524 12.8571C65.7847 12.8571 64.8381 11.8977 64.8381 10.7142Z" fill="white" fill-opacity="0.2"/>
<path d="M64.8381 10.7142L64.8381 5.71423H63.4286V10.7142C63.4286 12.6867 65.0063 14.2857 66.9524 14.2857C68.8985 14.2857 70.4762 12.6867 70.4762 10.7142L70.4762 5.71423H69.0667L69.0667 10.7142C69.0667 11.8977 68.1201 12.8571 66.9524 12.8571C65.7847 12.8571 64.8381 11.8977 64.8381 10.7142Z" fill="white" fill-opacity="0.1" style="mix-blend-mode:plus-lighter"/>
<path d="M72.5905 5.71423V14.2857H74V5.71423H72.5905Z" fill="#4F507F"/>
<path d="M72.5905 5.71423V14.2857H74V5.71423H72.5905Z" fill="white" fill-opacity="0.2"/>
<path d="M72.5905 5.71423V14.2857H74V5.71423H72.5905Z" fill="white" fill-opacity="0.1" style="mix-blend-mode:plus-lighter"/>
<path d="M29.4248 13.6411C28.8382 14.0766 28.0499 14.2857 27.06 14.2857C26.4551 14.2857 25.9051 14.1986 25.4101 14.0418C24.9152 13.885 24.4202 13.6759 23.9619 13.3972L24.5302 12.1602C24.9885 12.4564 25.4101 12.648 25.8134 12.77C26.2167 12.8919 26.62 12.9616 27.005 12.9616C27.5733 12.9616 27.9949 12.8745 28.3066 12.6829C28.5999 12.4912 28.7466 12.2299 28.7466 11.8815C28.7466 11.4982 28.5816 11.202 28.2333 11.0104C27.885 10.8188 27.445 10.6271 26.9134 10.4355C26.1251 10.1567 25.5018 9.84315 25.0435 9.49472C24.5669 9.14629 24.3286 8.64106 24.3102 7.97904C24.2919 7.26476 24.5669 6.70726 25.1352 6.30657C25.7035 5.90587 26.4367 5.71423 27.3533 5.71423C27.8116 5.71423 28.2516 5.7665 28.6916 5.88845C29.1315 6.0104 29.5532 6.18462 29.9381 6.42852L29.3698 7.61319C29.0215 7.42155 28.6916 7.28218 28.3799 7.17765C28.0499 7.07312 27.7016 7.02085 27.3533 7.02085C26.895 7.02085 26.5284 7.09054 26.2534 7.24733C25.9784 7.40413 25.8501 7.64803 25.8501 7.96162C25.8501 8.31005 26.0334 8.57138 26.3817 8.74559C26.73 8.91981 27.1883 9.11145 27.72 9.3205C28.5082 9.59925 29.1315 9.91284 29.6082 10.2787C30.0665 10.6445 30.3048 11.1498 30.3048 11.8292C30.3048 12.6132 30.0115 13.2055 29.4248 13.6411Z" fill="#4F507F"/>
<path d="M38.0572 9.28566V14.2857H39.4667V9.28566C39.4667 7.31322 37.889 5.71423 35.9429 5.71423C33.9967 5.71423 32.4191 7.31322 32.4191 9.28566V14.2857H33.8286V9.28566C33.8286 8.10219 34.7752 7.1428 35.9429 7.1428C37.1106 7.1428 38.0572 8.10219 38.0572 9.28566Z" fill="#4F507F"/>
<path fill-rule="evenodd" clip-rule="evenodd" d="M50.0381 9.99995C50.0381 12.3669 48.1449 14.2857 45.8095 14.2857C43.4742 14.2857 41.581 12.3669 41.581 9.99995C41.581 7.63301 43.4742 5.71423 45.8095 5.71423C48.1449 5.71423 50.0381 7.63301 50.0381 9.99995ZM48.6286 9.99995C48.6286 11.5779 47.3664 12.8571 45.8095 12.8571C44.2526 12.8571 42.9905 11.5779 42.9905 9.99995C42.9905 8.42199 44.2526 7.1428 45.8095 7.1428C47.3664 7.1428 48.6286 8.42199 48.6286 9.99995Z" fill="#4F507F"/>
<path d="M51.4476 5.71423L52.776 13.1082C53.0516 14.642 55.0722 14.6917 55.4125 13.1731L56.1999 8.95839C56.2288 8.80356 56.4336 8.80672 56.4585 8.96238L57.1211 13.1105C57.4152 14.6418 59.4389 14.6615 59.7587 13.1361L61.3143 5.71423H59.9462L58.5774 12.8288C58.548 12.9818 58.3462 12.9797 58.3194 12.8262L57.076 5.71423H55.699L54.2429 12.8497C54.2118 13.0022 54.0103 12.9977 53.985 12.844L52.8093 5.71423H51.4476Z" fill="#4F507F"/>
<path d="M16.7733 7C18.4081 7 19.7333 8.34315 19.7333 10C19.7333 11.6569 18.4081 13 16.7733 13L2.96 13C1.32524 13 -7.14578e-08 11.6569 0 10C7.14578e-08 8.34315 1.32524 7 2.96 7L16.7733 7Z" fill="#7094F4"/>
<path d="M6.90668 3C6.90668 1.34315 8.23191 0 9.86668 0C11.5014 0 12.8267 1.34315 12.8267 3V17C12.8267 18.6569 11.5014 20 9.86668 20C8.23191 20 6.90668 18.6569 6.90668 17V3Z" fill="#7094F4"/>
<path d="M6.90668 3C6.90668 1.34315 8.23191 0 9.86668 0C11.5014 0 12.8267 1.34315 12.8267 3V17C12.8267 18.6569 11.5014 20 9.86668 20C8.23191 20 6.90668 18.6569 6.90668 17V3Z" fill="white" fill-opacity="0.4" style="mix-blend-mode:screen"/>
<path d="M16.844 12.8288C17.9999 14.0004 17.9999 15.9 16.844 17.0716C15.688 18.2432 13.8137 18.2432 12.6578 17.0716L2.88994 7.17178C1.73395 6.00017 1.73395 4.10061 2.88994 2.929C4.04593 1.75739 5.92016 1.75739 7.07615 2.929L16.844 12.8288Z" fill="#7094F4"/>
<path d="M16.844 12.8288C17.9999 14.0004 17.9999 15.9 16.844 17.0716C15.688 18.2432 13.8137 18.2432 12.6578 17.0716L2.88994 7.17178C1.73395 6.00017 1.73395 4.10061 2.88994 2.929C4.04593 1.75739 5.92016 1.75739 7.07615 2.929L16.844 12.8288Z" fill="white" fill-opacity="0.2" style="mix-blend-mode:soft-light"/>
<path d="M12.6578 2.929C13.8137 1.75739 15.688 1.75739 16.844 2.929C17.9999 4.10061 17.9999 6.00017 16.844 7.17178L7.07615 17.0716C5.92016 18.2432 4.04593 18.2432 2.88994 17.0716C1.73395 15.9 1.73395 14.0004 2.88994 12.8288L12.6578 2.929Z" fill="#7094F4"/>
<path d="M12.6578 2.929C13.8137 1.75739 15.688 1.75739 16.844 2.929C17.9999 4.10061 17.9999 6.00017 16.844 7.17178L7.07615 17.0716C5.92016 18.2432 4.04593 18.2432 2.88994 17.0716C1.73395 15.9 1.73395 14.0004 2.88994 12.8288L12.6578 2.929Z" fill="white" fill-opacity="0.3" style="mix-blend-mode:overlay"/>
<path fill-rule="evenodd" clip-rule="evenodd" d="M9.86663 3C9.64866 3 9.47196 3.17909 9.47196 3.4V8.64804C9.47196 8.7692 9.47196 8.82978 9.44832 8.85784C9.42781 8.88218 9.39704 8.89509 9.36555 8.89258C9.32927 8.88969 9.287 8.84685 9.20247 8.76118L5.54102 5.05025C5.3869 4.89404 5.13701 4.89404 4.98288 5.05025C4.82875 5.20646 4.82875 5.45973 4.98288 5.61594L8.64432 9.32686C8.72886 9.41254 8.77112 9.45538 8.77398 9.49215C8.77646 9.52407 8.76371 9.55525 8.7397 9.57604C8.71202 9.6 8.65224 9.6 8.53269 9.6H3.35463C3.13666 9.6 2.95996 9.77909 2.95996 10C2.95996 10.2209 3.13666 10.4 3.35463 10.4H8.5327C8.65225 10.4 8.71202 10.4 8.7397 10.424C8.76371 10.4447 8.77646 10.4759 8.77398 10.5078C8.77113 10.5446 8.72886 10.5875 8.64433 10.6731L4.98288 14.3841C4.82875 14.5403 4.82875 14.7935 4.98288 14.9497C5.13701 15.106 5.3869 15.106 5.54102 14.9497L9.20247 11.2388C9.287 11.1531 9.32927 11.1103 9.36555 11.1074C9.39704 11.1049 9.42781 11.1178 9.44832 11.1422C9.47196 11.1702 9.47196 11.2308 9.47196 11.352V16.6C9.47196 16.8209 9.64866 17 9.86663 17C10.0846 17 10.2613 16.8209 10.2613 16.6V11.352C10.2613 11.2308 10.2613 11.1702 10.2849 11.1422C10.3054 11.1178 10.3362 11.1049 10.3677 11.1074C10.404 11.1103 10.4463 11.1531 10.5308 11.2388L14.1922 14.9497C14.3464 15.106 14.5963 15.106 14.7504 14.9497C14.9045 14.7935 14.9045 14.5403 14.7504 14.3841L11.0889 10.6731C11.0044 10.5875 10.9621 10.5446 10.9593 10.5078C10.9568 10.4759 10.9695 10.4447 10.9936 10.424C11.0212 10.4 11.081 10.4 11.2006 10.4H16.3786C16.5966 10.4 16.7733 10.2209 16.7733 10C16.7733 9.77909 16.5966 9.6 16.3786 9.6H11.2006C11.081 9.6 11.0212 9.6 10.9936 9.57604C10.9695 9.55525 10.9568 9.52407 10.9593 9.49215C10.9621 9.45538 11.0044 9.41254 11.0889 9.32686L14.7504 5.61594C14.9045 5.45973 14.9045 5.20646 14.7504 5.05025C14.5963 4.89404 14.3464 4.89404 14.1922 5.05025L10.5308 8.76118C10.4463 8.84685 10.404 8.88969 10.3677 8.89259C10.3362 8.8951 10.3054 8.88218 10.2849 8.85784C10.2613 8.82979 10.2613 8.76921 10.2613 8.64804V3.4C10.2613 3.17909 10.0846 3 9.86663 3Z" fill="white"/>
</svg>
